<svg xmlns="http://www.w3.org/2000/svg" width="557.968" height="153.393" viewBox="0 0 557.968 153.393" fill="none">
  <path d="M 553.15 50.677 C 549.931 42.406 545.392 35.361 539.542 29.535 C 533.691 23.708 526.629 19.229 518.356 16.083 C 510.082 12.943 500.926 11.374 490.889 11.374 C 484.658 11.374 478.736 12.248 473.13 13.99 C 467.523 15.731 462.311 18.175 457.5 21.314 C 452.689 24.453 448.344 28.187 444.466 32.516 C 440.587 36.845 437.282 41.589 434.55 46.75 C 432.829 50.003 431.36 53.386 430.148 56.905 C 428.908 56.038 427.388 55.551 425.753 55.622 C 423.903 55.701 420.885 55.78 417.343 55.844 C 420.197 54.189 420.584 50.355 420.792 46.527 L 423.337 12.764 C 423.581 9.561 421.587 6.622 418.519 5.619 C 416.662 5.01 414.755 4.458 413.192 3.963 C 409.98 2.946 406.689 2.15 403.312 1.577 C 399.928 1.003 396.53 0.595 393.117 0.358 C 389.697 0.122 386.492 0 383.495 0 C 375.48 0 367.944 1.054 360.904 3.146 C 353.863 5.246 347.375 8.192 341.453 11.983 C 335.523 15.774 330.225 20.297 325.558 25.543 C 320.883 30.789 316.933 36.551 313.692 42.815 C 313.011 44.127 312.373 45.46 311.763 46.814 L 313.685 10.75 C 313.886 6.973 310.817 3.834 307.039 3.942 L 262.013 5.21 C 258.45 5.311 255.632 8.278 255.726 11.847 L 256.887 56.919 L 235.787 5.425 C 234.755 2.903 232.245 1.297 229.521 1.412 L 181.843 3.483 C 179.269 3.598 177.097 5.196 176.157 7.446 C 175.01 6.665 173.605 6.235 172.085 6.3 L 121.36 8.579 C 117.811 8.736 115.022 11.61 115.022 15.101 L 115.022 38.63 C 114.592 36.164 113.968 33.864 113.136 31.721 C 111.43 27.32 109.057 23.464 106.024 20.146 C 102.991 16.828 99.45 14.04 95.406 11.768 C 91.362 9.503 87.003 7.654 82.329 6.235 C 77.654 4.816 72.793 3.798 67.731 3.189 C 62.677 2.58 57.672 2.279 52.718 2.279 C 48.459 2.279 44.072 2.501 39.533 2.938 C 35.002 3.376 30.449 4.021 25.882 4.866 C 21.315 5.712 16.834 6.758 12.439 8.013 C 10.138 8.672 7.901 9.367 5.729 10.105 C 2.294 11.274 -0.007 14.499 0 18.118 L 0.194 137.404 C 0.194 140.887 2.33 144.033 5.585 145.287 C 7.937 146.19 10.36 146.993 12.862 147.695 C 17.322 148.949 21.86 149.946 26.463 150.691 C 31.066 151.436 35.683 151.96 40.322 152.268 C 44.961 152.576 49.442 152.726 53.765 152.726 C 58.088 152.726 62.885 152.554 67.939 152.218 C 72.994 151.881 78.034 151.2 83.06 150.189 C 88.079 149.172 92.911 147.767 97.55 145.975 C 102.188 144.183 106.282 141.861 109.846 139.023 C 111.789 137.468 113.509 135.734 115.029 133.813 L 115.029 142.994 C 115.029 146.721 118.191 149.688 121.969 149.516 L 160.556 147.796 C 163.869 147.645 166.564 145.122 166.873 141.876 L 174.286 63.362 L 172.243 143.366 C 172.15 147 175.075 150.003 178.71 150.003 L 220.982 150.003 C 224.545 150.003 227.434 147.129 227.456 143.567 L 227.728 95.284 L 244.29 143.968 C 245.251 146.785 248.004 148.584 250.965 148.333 L 300.98 144.083 C 304.199 143.811 306.723 141.209 306.895 137.984 L 308.365 110.435 C 308.523 110.836 308.666 111.237 308.831 111.639 C 312.315 120.038 317.148 127.334 323.314 133.533 C 329.487 139.733 336.821 144.592 345.324 148.111 C 353.827 151.63 363.134 153.393 373.243 153.393 C 378.469 153.393 383.976 152.898 389.762 151.917 C 395.547 150.935 401.197 149.465 406.703 147.495 C 412.21 145.531 417.372 143.058 422.182 140.077 C 425.832 137.819 429.037 135.268 431.797 132.423 C 433.389 130.781 434.292 128.603 434.256 126.324 L 434.034 113.323 C 434.335 113.896 434.643 114.462 434.959 115.029 C 437.762 120.017 441.153 124.553 445.14 128.631 C 449.119 132.716 453.571 136.2 458.482 139.095 C 463.393 141.99 468.677 144.241 474.32 145.846 C 479.962 147.452 485.899 148.254 492.129 148.254 C 498.36 148.254 504.662 147.401 510.405 145.689 C 516.147 143.983 521.467 141.589 526.343 138.522 C 531.225 135.454 535.62 131.77 539.535 127.477 C 543.442 123.184 546.769 118.462 549.508 113.294 C 552.239 108.134 554.333 102.601 555.788 96.703 C 557.244 90.804 557.968 84.684 557.968 78.334 C 557.968 68.15 556.362 58.919 553.143 50.648 L 553.15 50.677 Z M 115.022 54.956 L 115.022 90.819 C 111.652 85.329 106.748 80.334 99.866 77.417 C 99.866 77.417 112.176 73.425 115.022 54.949 L 115.022 54.956 Z M 62.87 58.926 C 62.72 65.491 54.718 65.247 54.718 65.247 L 54.718 52.82 C 54.718 52.82 63.021 52.354 62.87 58.919 L 62.87 58.926 Z M 54.718 94.581 C 54.718 94.581 62.275 93.542 62.132 100.58 C 61.981 107.618 54.718 106.579 54.718 106.579 L 54.718 94.581 Z M 384.521 55.02 C 386.442 53.228 400.229 54.863 407.843 56.002 C 401.979 56.081 396.099 56.145 392.228 56.153 C 385.116 56.167 383.23 56.224 384.521 55.02 Z M 503.493 86.82 C 502.876 88.669 502.002 90.303 500.862 91.722 C 499.722 93.141 498.324 94.266 496.682 95.105 C 495.033 95.936 493.183 96.352 491.118 96.352 C 489.053 96.352 487.247 95.879 485.684 94.933 C 484.121 93.987 482.823 92.747 481.769 91.213 C 480.715 89.679 479.927 87.966 479.396 86.074 C 478.873 84.182 478.607 82.29 478.607 80.398 C 478.607 78.506 478.916 76.535 479.532 74.758 C 480.149 72.98 481.038 71.425 482.199 70.092 C 483.361 68.766 484.759 67.713 486.379 66.946 C 488.007 66.179 489.849 65.799 491.907 65.799 C 493.965 65.799 495.714 66.236 497.27 67.118 C 498.826 67.999 500.13 69.146 501.184 70.565 C 502.238 71.984 503.041 73.604 503.586 75.432 C 504.131 77.259 504.411 79.137 504.411 81.072 C 504.411 83.007 504.102 84.971 503.486 86.82 L 503.493 86.82 Z" fill="currentColor" fill-rule="nonzero"/>
</svg>
