<svg xmlns="http://www.w3.org/2000/svg" width="557.982" height="163.670" viewBox="0 0 557.982 163.670" fill="none">
  <path d="M 553.15 54.06 C 549.931 45.237 545.392 37.719 539.549 31.498 C 533.699 25.285 526.637 20.497 518.363 17.15 C 510.089 13.803 500.933 12.126 490.896 12.126 C 484.666 12.126 478.743 13.058 473.137 14.921 C 467.53 16.785 462.318 19.386 457.507 22.741 C 452.696 26.087 448.352 30.072 444.473 34.688 C 440.594 39.303 437.289 44.37 434.557 49.874 C 432.836 53.343 431.367 56.955 430.155 60.711 C 428.915 59.786 427.395 59.263 425.76 59.342 C 423.91 59.428 420.892 59.507 417.35 59.578 C 420.204 57.808 420.591 53.723 420.799 49.638 L 423.344 13.61 C 423.588 10.191 421.595 7.059 418.526 5.984 C 416.669 5.332 414.762 4.744 413.199 4.221 C 409.987 3.139 406.696 2.286 403.319 1.677 C 399.935 1.061 396.537 0.631 393.124 0.38 C 389.704 0.129 386.499 0 383.502 0 C 375.487 0 367.952 1.118 360.911 3.361 C 353.87 5.605 347.382 8.744 341.46 12.793 C 335.531 16.842 330.232 21.666 325.565 27.263 C 320.89 32.86 316.94 39.009 313.699 45.689 C 313.018 47.086 312.38 48.513 311.77 49.953 L 313.692 11.467 C 313.893 7.439 310.824 4.085 307.046 4.2 L 262.021 5.554 C 258.457 5.662 255.64 8.83 255.733 12.635 L 256.894 60.732 L 235.794 5.784 C 234.762 3.089 232.252 1.376 229.521 1.505 L 181.843 3.712 C 179.269 3.834 177.097 5.547 176.157 7.941 C 175.01 7.11 173.605 6.651 172.085 6.723 L 121.36 9.159 C 117.811 9.331 115.022 12.399 115.022 16.118 L 115.022 41.231 C 114.592 38.601 113.968 36.143 113.136 33.856 C 111.43 29.162 109.057 25.048 106.024 21.508 C 102.991 17.967 99.45 14.993 95.406 12.571 C 91.362 10.148 87.003 8.185 82.329 6.665 C 77.654 5.146 72.793 4.064 67.731 3.419 C 62.677 2.766 57.672 2.444 52.718 2.444 C 48.467 2.444 44.072 2.68 39.533 3.146 C 35.002 3.619 30.449 4.3 25.882 5.203 C 21.315 6.106 16.834 7.224 12.439 8.564 C 10.138 9.267 7.901 10.012 5.729 10.8 C 2.294 12.048 -0.007 15.488 0 19.351 L 0.194 146.635 C 0.194 150.354 2.33 153.708 5.585 155.041 C 7.937 156.009 10.36 156.862 12.862 157.614 C 17.322 158.954 21.86 160.015 26.463 160.811 C 31.066 161.606 35.683 162.165 40.322 162.488 C 44.961 162.81 49.442 162.975 53.765 162.975 C 58.088 162.975 62.885 162.796 67.939 162.43 C 72.994 162.072 78.034 161.348 83.06 160.266 C 88.079 159.184 92.911 157.686 97.55 155.772 C 102.188 153.859 106.282 151.386 109.846 148.355 C 111.789 146.699 113.509 144.843 115.029 142.793 L 115.029 152.59 C 115.029 156.561 118.191 159.736 121.977 159.549 L 160.563 157.715 C 163.876 157.557 166.572 154.862 166.88 151.393 L 174.293 67.62 L 172.25 152.984 C 172.157 156.862 175.082 160.065 178.717 160.065 L 220.989 160.065 C 224.552 160.065 227.442 156.998 227.463 153.199 L 227.735 101.677 L 244.297 153.622 C 245.258 156.625 248.011 158.546 250.972 158.281 L 300.987 153.744 C 304.207 153.45 306.73 150.677 306.902 147.237 L 308.372 117.845 C 308.53 118.268 308.673 118.705 308.838 119.128 C 312.323 128.087 317.155 135.877 323.321 142.485 C 329.494 149.1 336.828 154.282 345.331 158.037 C 353.835 161.793 363.141 163.67 373.25 163.67 C 378.477 163.67 383.983 163.147 389.776 162.101 C 395.562 161.054 401.211 159.485 406.718 157.385 C 412.224 155.292 417.386 152.655 422.197 149.473 C 425.846 147.065 429.051 144.341 431.811 141.31 C 433.403 139.561 434.306 137.232 434.27 134.802 L 434.048 120.927 C 434.349 121.536 434.658 122.145 434.973 122.747 C 437.776 128.072 441.168 132.91 445.154 137.267 C 449.133 141.625 453.585 145.345 458.497 148.433 C 463.408 151.522 468.692 153.923 474.334 155.636 C 479.977 157.349 485.913 158.202 492.144 158.202 C 498.374 158.202 504.676 157.292 510.419 155.464 C 516.162 153.644 521.482 151.092 526.357 147.817 C 531.239 144.542 535.634 140.614 539.549 136.035 C 543.456 131.455 546.783 126.41 549.522 120.905 C 552.254 115.394 554.354 109.496 555.802 103.203 C 557.258 96.911 557.982 90.382 557.982 83.602 C 557.982 72.73 556.369 62.882 553.15 54.06 Z M 54.718 113.717 L 54.718 100.91 C 54.718 100.91 62.275 99.806 62.132 107.31 C 61.981 114.821 54.718 113.71 54.718 113.71 L 54.718 113.717 Z M 54.718 69.612 L 54.718 56.353 C 54.718 56.353 63.021 55.859 62.87 62.868 C 62.72 69.87 54.718 69.619 54.718 69.619 L 54.718 69.612 Z M 99.866 82.606 C 99.866 82.606 112.176 78.348 115.022 58.632 L 115.022 96.904 C 111.652 91.041 106.748 85.716 99.866 82.606 Z M 392.228 59.901 C 385.116 59.915 383.23 59.98 384.521 58.69 C 386.442 56.783 400.229 58.518 407.843 59.736 C 401.979 59.822 396.099 59.894 392.228 59.901 Z M 503.5 92.632 C 502.884 94.603 502.009 96.344 500.869 97.864 C 499.729 99.376 498.331 100.58 496.689 101.469 C 495.04 102.358 493.19 102.802 491.125 102.802 C 489.061 102.802 487.254 102.3 485.691 101.29 C 484.135 100.279 482.83 98.96 481.776 97.326 C 480.722 95.692 479.934 93.865 479.403 91.844 C 478.873 89.823 478.614 87.802 478.614 85.788 C 478.614 83.774 478.923 81.667 479.539 79.767 C 480.156 77.868 481.045 76.213 482.206 74.794 C 483.368 73.375 484.759 72.257 486.386 71.44 C 488.007 70.623 489.856 70.214 491.914 70.214 C 493.972 70.214 495.721 70.68 497.277 71.619 C 498.833 72.558 500.138 73.783 501.192 75.295 C 502.245 76.808 503.049 78.542 503.593 80.491 C 504.138 82.441 504.418 84.447 504.418 86.512 C 504.418 88.576 504.11 90.668 503.493 92.639 L 503.5 92.632 Z" fill="currentColor" fill-rule="nonzero"/>
</svg>
